<svg width="19" height="29" xmlns="http://www.w3.org/2000/svg"><path d="M16.365 2.02C14.913.8 12.63.189 9.513.189c-1.594 0-2.958.169-4.09.505-1.134.337-2.072.797-2.816 1.38-.744.586-1.284 1.268-1.62 2.046a6.23 6.23 0 00-.505 2.497V7.89h4.515c0-1.027.31-1.904.93-2.63.62-.725 1.815-1.088 3.586-1.088.884 0 1.62.098 2.204.292.585.195 1.053.452 1.408.77.354.319.602.664.744 1.036.141.372.212.736.212 1.089v1.01c0 .424-.08.796-.239 1.115-.16.319-.345.603-.558.85a2.368 2.368 0 01-.664.558c-.23.125-.416.222-.557.292-.143.036-.497.16-1.063.372-.567.212-1.231.451-1.992.717l-2.364.823c-.815.284-1.54.531-2.179.744-1.274.46-2.257 1.24-2.947 2.337-.69 1.098-1.036 2.32-1.036 3.665v2.497c0 .637.115 1.337.346 2.098.23.762.68 1.461 1.354 2.099.672.637 1.594 1.168 2.762 1.593 1.17.425 2.691.638 4.569.638 1.876 0 3.4-.213 4.568-.638 1.169-.425 2.089-.956 2.762-1.593.673-.638 1.124-1.337 1.355-2.099.23-.76.345-1.46.345-2.098V6.616c0-1.841-.726-3.373-2.178-4.595zM14.081 20.8c0 1.275-.318 2.257-.956 2.948-.638.69-1.841 1.036-3.612 1.036-1.736 0-2.922-.327-3.56-.983-.637-.655-.956-1.655-.956-3.001 0-.673.133-1.23.399-1.674.265-.442.557-.805.876-1.089.39-.318.797-.566 1.222-.743a50.314 50.314 0 011.806-.638c.531-.177 1.107-.38 1.726-.61.62-.23 1.196-.434 1.727-.612.247-.07.513-.194.797-.371.283-.177.46-.443.53-.797V20.8h.001z" fill="#BCC2C6" fill-rule="evenodd"/></svg>